<?xml version="1.0" encoding="UTF-8" standalone="no"?>
<!-- Created with Inkscape (http://www.inkscape.org/) -->

<svg
   version="1.1"
   id="svg1"
   width="360"
   height="360"
   viewBox="0 0 360 360"
   sodipodi:docname="oneboxtrace.svg"
   inkscape:version="1.4 (86a8ad7, 2024-10-11)"
   xmlns:inkscape="http://www.inkscape.org/namespaces/inkscape"
   xmlns:sodipodi="http://sodipodi.sourceforge.net/DTD/sodipodi-0.dtd"
   xmlns="http://www.w3.org/2000/svg"
   xmlns:svg="http://www.w3.org/2000/svg">
  <defs
     id="defs1" />
  <sodipodi:namedview
     id="namedview1"
     pagecolor="#ffffff"
     bordercolor="#000000"
     borderopacity="0.25"
     inkscape:showpageshadow="2"
     inkscape:pageopacity="0.0"
     inkscape:pagecheckerboard="0"
     inkscape:deskcolor="#d1d1d1"
     showgrid="false"
     inkscape:zoom="2.1472222"
     inkscape:cx="60.310479"
     inkscape:cy="168.35705"
     inkscape:window-width="1920"
     inkscape:window-height="991"
     inkscape:window-x="-9"
     inkscape:window-y="-9"
     inkscape:window-maximized="1"
     inkscape:current-layer="g1" />
  <g
     inkscape:groupmode="layer"
     inkscape:label="Image"
     id="g1">
    <path
       style="fill:#060606;stroke:none"
       d="m 76.503846,67.170952 c -0.896125,20.904103 46.129614,51.869088 66.016204,58.848988 7.49372,2.04785 66.28033,-11.96336 78.94136,-16.7747 3.31747,-1.26069 14.67179,-86.056315 -19.94136,-78.061714 m 37,74.405094 76,-19.000002 v -2 c -15.90894,-10.8219 -31.15933,-22.59473 -47,-33.49228 -40.11397,-33.205351 -33.03145,27.868369 -29,54.492282 M 50.523909,89.291558 c -8.969662,3.07107 -9.183644,12.359952 -8.989197,20.297062 1.476642,38.31206 2.794005,76.65432 2.98534,115 -3.568549,48.12272 55.063255,27.41108 82.851848,16.65663 4.00224,-1.6438 4.83554,-88.21456 -0.94136,-104.64197 C 119.38286,124.52951 65.521104,84.156726 50.523909,89.291558 M 287.34282,113.57243 c -20.37936,0.8276 -34.88232,-4.21454 -47.79498,8.71912 -2.48185,3.28679 1.03522,108.23706 3.71449,112.00772 3.29771,4.64102 54.43497,46.99376 74.45956,41.47278 13.07517,-3.60492 9.05844,-26.15831 8.81281,-36.18343 -0.63599,-25.95569 -1.08321,-50.24577 -1.08321,-76.13713 0,-13.7209 1.85704,-33.74258 -2.63438,-46.85901 M 144.52005,237.58862 c 21.46822,-7.83853 53.84532,-5.94168 71.49493,-21.32562 21.06849,-23.13189 8.5528,-59.18945 8.10792,-87.34579 -0.20178,0.17964 -56.35386,-3.23878 -73.08819,16.80567 -12.08625,20.84635 -12.61591,67.3304 -6.51466,91.86574 m 0,17 c 0,16.38165 0.5856,32.68396 0.98534,49 0.21142,8.63019 -0.68328,18.98813 6.34413,25.46683 7.94067,7.32065 41.68453,-2.41492 50.6964,-4.66788 25.25633,-6.31409 29.20946,-7.18036 54.57698,-12.97742 8.75055,-1.9997 24.0415,-3.74215 28.47741,-12.83697 3.10406,-23.18179 -43.9853,-53.51299 -65.08026,-60.4267 -7.18384,-1.81535 -15.99857,2.19888 -23,3.79169 -17.6972,4.02603 -35.23125,8.98294 -53,12.65045 M 124,260.38293 c -18.1813,1.86659 -61.60069,7.76058 -72.223776,19.27435 -0.314712,5.10525 56.888556,49.6049 69.743826,47.44831 19.30589,-3.2387 14.61978,-65.49561 2.47995,-66.72266 z"
       id="path1"
       sodipodi:nodetypes="cssccccsccssssccsssssccscsccssssssscssss" />
  </g>
</svg>
